<?xml version="1.0" encoding="UTF-8" standalone="no"?>
<svg xmlns:rdf="http://www.w3.org/1999/02/22-rdf-syntax-ns#" xmlns="http://www.w3.org/2000/svg" height="1464" viewBox="0 0 1218 1464" width="1218" version="1.1" xmlns:cc="http://creativecommons.org/ns#" xmlns:dc="http://purl.org/dc/elements/1.1/">
<path d="m490.12 1346.5c0.14491-79.385-0.1189-117.87-0.81275-118.56-0.97108-0.9711-10.706-1.9542-67.804-6.8477-13.2-1.1313-26.925-2.3081-30.5-2.6152s-11.9-0.9493-18.5-1.4272-23.925-1.989-38.5-3.3581c-14.575-1.369-32.8-2.9765-40.5-3.5721-7.7-0.5957-25.7-1.9851-40-3.0876-14.3-1.1024-32.975-2.6675-41.5-3.4778-8.525-0.8104-24.275-2.1602-35-2.9996-38.578-3.0194-141.06-11.844-155.87-13.422-11.253-1.199-15.677-5.6386-8.8251-8.8563 1.2072-0.5669 6.2853-4.8768 11.285-9.5775 4.9993-4.7008 12.874-11.605 17.5-15.343 4.6257-3.7382 9.0854-7.4801 9.9104-8.3155 1.401-1.4186 12.744-11.358 19.405-17.004 1.6223-1.375 3.8676-3.4 4.9897-4.5s3.6801-3.35 5.6845-5c3.2298-2.6588 13.9-11.853 32.337-27.863 3.2538-2.8255 7.1086-6.0373 8.5663-7.1373s4.1955-3.4773 6.084-5.2828c1.8885-1.8056 7.2091-6.5306 11.824-10.5 4.6144-3.9695 10.937-9.4672 14.05-12.217 3.1129-2.75 7.8852-6.8 10.605-9s7.8782-6.7 11.463-10c6.2364-5.7409 15.979-14.174 31.806-27.531 4.0223-3.3946 7.7312-7.2712 8.242-8.6148 4.4101-11.599-0.56173-14.034-10.55-5.1661-2.671 2.3713-6.9148 6.1379-9.4307 8.3702-2.5158 2.2322-8.1407 6.9572-12.5 10.5-4.359 3.5427-8.859 7.3453-10 8.4501-1.141 1.1049-4.3246 3.8049-7.0746 6-2.75 2.1952-5.225 4.2375-5.5 4.5385-0.68411 0.7488-34.9 30.373-41.526 35.953-2.9388 2.475-10.327 8.6991-16.417 13.831-6.0907 5.1323-11.536 10.195-12.101 11.25-0.56474 1.0552-1.5386 1.9186-2.164 1.9186-0.62548 0-3.8719 2.3625-7.2142 5.25s-7.2023 6.2012-8.5776 7.3638-6.644 5.6626-11.708 10c-5.0642 4.3374-14.237 12.161-20.384 17.386-6.1469 5.225-15.708 13.438-21.248 18.25-16.358 14.2-16.596 13.9-16.857-20.1-0.1082-14.1-0.2839-30.9-0.3903-37.2-0.2202-13.1-1.7987-348.76-1.7588-374 0.05576-35.2 1.4012-96.08 2.3415-105.95 1.5351-16.11 3.0244-27.21 3.8868-28.95 0.4332-0.88 1.3317-4.3 1.9966-7.6 0.66489-3.3 2.0525-8.925 3.0836-12.5s2.8733-10.325 4.0937-15c5.7258-21.933 7.1667-26.336 11.647-35.592 2.6382-5.4501 5.6396-11.934 6.6698-14.409 3.2876-7.8972 17.583-31.894 23.159-38.875 21.146-26.475 29.795-34.118 53.591-47.356 34.961-19.45 63.698-25.838 93.278-20.735 18.525 3.1957 24.196 4.2912 33.099 6.3948 5.5 1.2995 12.25 2.6561 15 3.0146 8.4393 1.1004 22.638 8.9251 30.443 16.776 4.6139 4.6414 7.5023 6.7806 9.1553 6.7806 1.3282 0 3.9869 0.45584 5.9083 1.013 3.5217 1.0212 24.079 5.2567 31.493 6.4888 2.2 0.36558 6.7 1.5715 10 2.6798 6.8492 2.3004 11.533 2.0189 18.891-1.135 25.849-11.08 68.425-1.6761 87.171 19.254 5.8976 6.5846 7.7715 7.617 13.938 7.6789 2.75 0.0276 7.7488 0.69847 11.108 1.4908 3.3596 0.79231 8.7596 1.8978 12 2.4566 13.716 2.3653 60.13 12.186 65.765 13.916 3.3694 1.034 13.101 3.5524 21.626 5.5966 22.193 5.3215 23.27 6.0212 16.75 10.882-5.1042 3.8055-7.9971 3.8184-24.946 0.11155-8.64-1.87-16.88-3.41-18.31-3.41-3.096 0-20.887-3.5395-27.997-5.5699-2.75-0.78536-11.525-2.7444-19.5-4.3535-25.386-5.122-29.45-5.973-31.738-6.6456-3.4802-1.0233-3.7904 1.7798-0.97577 8.8181 2.1386 5.3477 4.35 13.27 6.3019 22.576 0.56532 2.6953 1.1436 21.618 1.5945 52.174l0.31 21.5-5.5-0.22c-11.398-0.46162-11.02 0.61487-11.017-31.339 0.006-76.384-19.926-105.32-72.378-105.08-16.459 0.0761-19.324 1.7678-11.432 6.7501 13.475 8.5062 23.875 23.46 29.136 41.891 2.5511 8.938 2.5727 9.3274 3.1412 56.5 0.55275 45.867 0.7726 57.559 2.5104 133.5 0.44049 19.25 0.90227 48.275 1.0262 64.5 0.12389 16.225 0.34138 35.575 0.48332 43 0.14193 7.425 0.60259 42.3 1.0237 77.5 0.4211 35.2 1.0448 75.234 1.3861 88.964l0.62049 24.964 3.5 0.69337c1.925 0.38136 10.025 1.2176 18 1.8582 7.975 0.64066 17.629 1.8203 21.453 2.6214 3.8243 0.8011 7.5368 1.2326 8.25 0.95892 1.6133-0.61906 1.8407-85.567 0.26902-100.49-1.4-13.3-1.55-13.07 8.54-13.07 10.93 0 9.99-5.56 9.99 59v56.5l3.5 0.7347c1.925 0.40409 12.95 1.8523 24.5 3.2182 40.707 4.814 47.745 5.6869 68.75 8.5276 3.9875 0.5392 11.75 1.4501 17.25 2.0243 5.5 0.5741 12.7 1.4619 16 1.9729s10.5 1.4271 16 2.0358c5.5 0.6086 15.175 1.8034 21.5 2.655s13.075 1.6599 15 1.7962c1.925 0.1364 7.325 0.7665 12 1.4003 18.245 2.4736 45.72 6.0202 50 6.4543 8.2968 0.8413 55.383 6.6244 66 8.1061 13.724 1.9152 31.996 4.1468 50 6.1067 7.975 0.8681 21.7 2.6401 30.5 3.9379 8.8 1.2977 20.725 2.8908 26.5 3.5402s15.675 1.8309 22 2.6255 17.125 2.0861 24 2.8699c6.875 0.7839 15.65 1.9046 19.5 2.4905s11.5 1.5003 17 2.032 15.318 1.7028 21.817 2.6024c15.66 2.1676 15.36 4.2055 13.037-88.531-0.7745-30.92-1.2067-29.554 8.7061-27.511 3.3677 0.694 6.3131 1.4517 6.5452 1.6839 0.6847 0.6847 1.2154 31.312 1.3083 75.503l0.087 41.275 2.2943 0.8723c1.2619 0.4797 7.4494 1.3934 13.75 2.0303s13.931 1.5618 16.956 2.0552c16.69 2.7226 17.463 2.3868 16.609-7.2116-0.3081-3.4626-0.8403-25.421-1.1826-48.796s-0.7572-42.725-0.9219-43-0.5901-19.85-0.9454-43.5c-0.3552-23.65-0.8257-49.75-1.0454-58s-0.6685-33.45-0.9974-56c-0.3288-22.55-0.7812-44.6-1.0052-49-0.2239-4.4-0.6413-31.175-0.9274-59.5l-0.5203-51.5-3.143-10c-13.197-41.99-36.672-62.064-74.879-64.033-16.143-0.83174-17.989 0.24184-9.0416 5.259 17.043 9.5564 27.209 21.488 35.166 41.274 2.2747 5.656 4.7123 76.985 2.7126 79.377-9.3268 11.159-15.704-3.1568-15.804-35.474-0.1831-59.499-8.8593-71.577-59.575-82.939-9.35-2.0946-17.675-4.0623-18.5-4.3726-1.5113-0.56843-21.986-4.9686-40.5-8.7037-18.254-3.6828-28.934-5.9323-35-7.3726-3.3-0.78348-17.925-3.9392-32.5-7.0127s-31.225-6.6613-37-7.9728c-5.775-1.3116-13.2-2.9113-16.5-3.5549-3.3-0.64366-8.7-1.7868-12-2.5402-9.4973-2.1684-44.541-9.5654-49.5-10.448-2.475-0.44071-11.7-2.4262-20.5-4.4122s-20.275-4.5318-25.5-5.6573c-13.863-2.986-16.087-3.9643-19.211-8.4477-6.4053-9.1931-4.1682-9.5376 23.211-3.5742 35.001 7.6234 42.348 9.1457 53.5 11.085 10.364 1.8024 27.197 5.159 43 8.5744 13.243 2.8622 27.021 5.6242 37.234 7.4644 5.6287 1.0141 10.687 2.1239 11.241 2.4662 0.96605 0.59705 8.9517 2.2907 30.525 6.474 15.066 2.9214 29.523 5.9728 33.983 7.1726 2.1906 0.5893 11.191 2.3709 20 3.959 8.8094 1.5882 18.267 3.3629 21.017 3.9438 13.616 2.8763 20.925 4.2063 30.93 5.6286l10.93 1.5537 10.57-3.061c21.17-6.1307 30.514-6.3157 51.507-1.0196 7.9529 2.0063 25.232 10.265 29.12 13.918 1.1396 1.0706 2.4944 1.9465 3.0107 1.9465 1.234 0 8.882 5.4846 14.575 10.452 4.6459 4.0538 9.3058 5.7295 25.357 9.1186 3.85 0.81289 9.475 2.3209 12.5 3.3512s7.0278 2.1461 8.8952 2.4796c4.6143 0.82409 19.068 7.9155 27.605 13.544 3.85 2.5382 8.7309 5.5014 10.846 6.5848 4.0235 2.0604 16.909 14.58 23.379 22.716 2.076 2.6104 4.3636 4.7479 5.0835 4.75 0.72 0.002 1.0481 0.42608 0.7291 0.94215-0.3189 0.51606 1.2295 2.7842 3.441 5.0404s4.0209 4.7698 4.0209 5.5858c0 0.81604 1.5842 3.7867 3.5204 6.6015 3.4821 5.0621 4.7821 7.5488 8.0164 15.334 3.8233 9.203 9.0369 29.742 9.9 39 0.3589 3.85 1.077 9.25 1.5959 12 0.8685 4.6035 1.4111 26.429 2.511 101 0.2271 15.4 0.6579 37.45 0.9573 49 0.6979 26.926 1.2326 64.617 2.0188 142.31 0.7136 70.524 1.4703 63.916-8.1553 71.219-3.2255 2.4473-9.2748 7.1543-13.443 10.46-4.1681 3.3057-8.8931 6.9858-10.5 8.1779-2.9935 2.2208-10.181 7.6863-19.604 14.908-11.377 8.7184-21.173 16.054-25.274 18.925-2.3568 1.65-6.4807 4.5398-9.1642 6.4218-2.6835 1.8821-6.9041 5.0744-9.3791 7.0941-4.2837 3.4957-25.684 19.008-37.823 27.416-3.1222 2.1627-7.9794 5.7627-10.794 8-2.8144 2.2374-9.2533 6.993-14.309 10.568-5.0555 3.575-12.203 8.7978-15.883 11.606-3.6802 2.8085-8.4913 6.0756-10.691 7.2603-3.996 2.1518-15.924 10.675-29.701 21.222-22.534 17.252-26.474 18.539-49.299 16.1-11.472-1.2256-35.505-3.5895-53.5-5.2623-5.775-0.5368-12.3-1.1907-14.5-1.453-2.2-0.2624-8.725-0.9109-14.5-1.4413-5.775-0.5303-14.775-1.4047-20-1.9431s-16.601-1.294-25.281-1.6793c-8.6795-0.3852-16.019-1.0849-16.309-1.5549-0.64909-1.0502-13.384-1.149-13.476-0.1045-0.75432 8.6392-1.1323 36.204-1.5702 114.5l-0.52989 94.75h-151.97-151.97l0.21454-117.53zm710.94-267.12c0.5734-1.508 0.7831-6.8056 0.485-12.25-0.2889-5.2761-0.7582-33.893-1.0428-63.593-0.6182-64.502-1.4593-115.01-2.0981-126-0.2557-4.4-0.8809-32.075-1.3892-61.5-0.5084-29.425-1.4034-56.875-1.9889-61-0.5856-4.125-1.4912-11.775-2.0125-17-2.4018-24.073-4.5117-33.636-10.481-47.5-8.0335-18.66-8.006-18.612-16.49-28.383-23.74-27.342-43.15-40.188-71.097-47.053-18.927-4.6493-20.335-4.0707-13.99 5.7471 10.892 16.852 10.251 7.1038 12.543 190.69 0.2815 22.55 0.7467 53.6 1.0337 69s0.7586 45.775 1.048 67.5c0.2895 21.725 0.693 41.6 0.8968 44.166 0.2038 2.5661 0.6522 20.116 0.9965 39 0.7515 41.226 0.3592 38.56 5.78 39.265 15.421 2.0048 36.53 4.698 43.746 5.5813 4.675 0.5723 13.225 1.7153 19 2.5401 30.588 4.3685 33.673 4.4381 35.06 0.7909zm-807.99-116.89c-0.15783-10.992-0.43759-20.23-0.62168-20.528-0.18409-0.29787-0.59263-27.754-0.90786-61.014-1.24-131.31-1.63-166.31-2.1-186.97-1.8767-84.05-2.528-118.15-2.8841-151-0.46415-42.819-0.40467-42.455-9.5751-58.605-11.287-19.877-26.21-29.78-54.858-36.404-19.651-4.5438-26.729-3.9122-23.616 2.1076 9.6195 18.602 13.232 48.785 13.933 116.4 0.49076 47.38 0.95263 73.216 2.1184 118.5 1.283 49.835 1.9695 109.96 2.2324 195.5 0.32379 105.34-1.1993 93.865 12.665 95.412 4.95 0.5523 15.525 1.7328 23.5 2.6233 7.975 0.89052 19 2.2163 24.5 2.9462 5.5 0.72988 11.328 1.2576 12.95 1.1728l2.96-0.16-0.29-19.99zm-93.54-52.26c-0.31166-33.412-0.7865-88.65-1.0552-122.75-0.46468-58.971-0.86306-80.996-2.1433-118.5-0.30979-9.075-0.71781-34.725-0.90671-57-0.73031-86.117-1.0541-93.188-5.868-128.14-5.0541-36.693-19.445-60.923-37.621-63.344-5.3949-0.71859-14.848-2.8741-34.473-7.8606-19.434-4.9379-24.638-4.644-15.78 0.89106 40.722 25.447 51.881 57.402 52.186 149.45 0.15596 47.072 0.79096 85.349 2.1152 127.5 0.55292 17.6 1.2423 72.5 1.532 122 0.80242 137.12 1.0203 151.28 2.3606 153.39 0.90152 1.4237 23.931 4.7067 34.904 4.9756l5.31 0.13-0.56-60.75zm717.93-2.87c-7.9972-1.6203-47.366-8.6043-64.5-11.442-6.325-1.0476-13.043-1.9129-14.929-1.9229s-4.811-0.44075-6.5-0.95719c-1.689-0.51645-6.4322-1.3894-10.54-1.9399-9.5957-1.2858-10.409-2.2707-9.5984-11.621 0.54139-6.244 0.57857-42.666 0.0653-64-0.10586-4.4-0.26797-21.95-0.36026-39-0.19544-36.108 0.75829-33.224-11.764-35.571-5.43-1.0178-28.548-5.6767-51.373-10.353-39.319-8.0558-63.935-13.057-86.5-17.573-5.5-1.1009-16.3-3.149-24-4.5515-7.7-1.4024-28.85-5.5042-47-9.1149-18.15-3.6108-36.375-7.1742-40.5-7.9186-7.391-1.3339-24.814-4.9112-38.5-7.9047-3.85-0.84211-9.475-1.952-12.5-2.4664s-15.4-2.9615-27.5-5.4379-30.55-6.1064-41-8.0666-21.386-4.0464-24.301-4.636c-2.9158-0.58958-7.8658-1.4592-11-1.9324-3.1342-0.47325-8.8272-1.5404-12.651-2.3713-6.54-1.4213-10.449-0.86868-9.1154 1.2887 0.22565 0.36511 0.71936 15.502 1.0971 33.637 0.80088 38.447-0.80739 34.55 15.471 37.48 29.221 5.2582 27 5.4981 27-2.9163 0-7.0507 0.42354-7.4278 8.2591-7.354 8.2636 0.0778 8.2199-0.0156 8.378 17.887 0.15466 17.509-0.12608 18.106-7.593 16.139-3.2454-0.85503-8.6621-1.8629-33.044-6.1482-4.675-0.82167-12.325-1.9909-17-2.5983-4.675-0.60737-10.638-1.7957-13.25-2.6407l-4.77-1.55-0.19-16.17c-0.1-8.89-0.26-18.19-0.34-20.67-0.0854-2.475-0.48698-19.012-0.89249-36.75l-0.73729-32.25h2.4762c1.3619 0 10.351 1.575 19.977 3.5 9.6253 1.925 18.475 3.5 19.667 3.5 1.1916 0 4.276 0.63694 6.8544 1.4154 2.5784 0.77848 8.9629 2.1475 14.188 3.0423 5.225 0.89477 12.65 2.2998 16.5 3.1222 3.85 0.82243 21.625 4.3872 39.5 7.9217s43.525 8.6877 57 11.452c13.475 2.7639 26.75 5.4815 29.5 6.0392 17.25 3.4982 21.262 4.303 23.5 4.7133 7.0888 1.2999 46.059 8.7514 56.5 10.803 71.881 14.126 81.39 16.066 132.5 27.034 6.325 1.3572 18.7 3.8509 27.5 5.5416 14.789 2.8413 71.45 14.826 90 19.036 4.4 0.99865 13.573 2.7411 20.385 3.8722 6.8116 1.131 12.702 2.2528 13.091 2.4928 1.2058 0.74524 3.4814 88.282 3.5099 135.02 0.017 27.638 1.1216 25.336-10.985 22.883zm-5.9-55.13c-0.796-49.754-1.6425-83.251-2.1698-85.866-0.486-2.41-2.2246-2.9705-21.456-6.917-6.875-1.4109-17.45-3.6443-23.5-4.9631-42.957-9.3644-37.819-10.826-37.105 10.559 0.30923 9.2629 0.63162 30.926 0.71644 48.139 0.0848 17.214 0.43192 38.273 0.77134 46.798l0.61714 15.5 7 1.224c25.996 4.5456 55.293 9.6813 62.5 10.956 4.675 0.82701 8.6875 1.6873 8.9167 1.9117 4.1445 4.059 4.3398 2.0923 3.709-37.342zm-405.62-306.3c-1.4-2.6159-2.9416-11.501-3.5491-20.454-0.69608-10.259-2.4794-11.092-12.658-5.9093-2.6024 1.3251-5.9774 2.4174-7.5 2.4274s-5.2028 1.36-8.1782 3c-8.19 4.52-11.1 3.86-11.1-2.52 0-4.2817 4.3745-8.0466 12.227-10.523 21.753-6.8604 31.504-15.901 38.825-35.997 2.2994-6.3114 4.818-13.212 5.5969-15.334 2.0896-5.6942 1.2943-6.6209-10.849-12.641-6.102-3.025-13.376-6.9625-16.164-8.75-10.232-6.5599-12.947-4.498-35.615 27.045-7.3227 10.19-8.1244 10.759-14.077 10.001-8.3538-1.0638-8.903-3.6073-2.6947-12.479 2.3375-3.3403 4.7-6.8031 5.25-7.6951 0.55-0.89205 1.2518-1.8469 1.5596-2.1219 1.1542-1.0313 12.567-21.64 13.844-25 0.73189-1.925 1.9529-4.918 2.7134-6.6511 0.76052-1.7331 1.3828-3.6125 1.3828-4.1763 0-1.0084-10.865-11.816-18.288-18.193-2.0833-1.7894-9.0065-9.8295-15.385-17.867-6.3784-8.0373-12.401-15.332-13.384-16.21-8.8905-7.9454-34.743-55.015-43.701-79.566-13.784-37.777-12.674-89.188 2.4216-112.23 0.92957-1.4187 2.8954-4.8362 4.3685-7.5944 7.1533-13.394 9.6464-17.481 14.123-23.157 2.66-3.36 4.84-6.47 4.84-6.89 0-0.4201 1.1266-2.2409 2.5036-4.0462 5.5053-7.2178 11.46-22.625 11.482-29.706 0.0372-12.274-7.2687-14.866-32.857-11.657-10.948 1.3727-15.313-2.0734-8.3782-6.6133 1.5125-0.9901 4.0294-2.9949 5.5932-4.4551 3.1907-2.9795 20.811-11.993 27.564-14.1 8.8403-2.7583 8.1206-4.6548-5.5584-14.647-7.9742-5.8252-9.23-6.9721-13.938-12.728-18.402-22.5-22.508-39.525-6.6274-27.485 10.959 8.3086 19.591 12.769 31.163 16.104l11.327 3.2638 6.1513-6.4408c21.16-22.155 42.34-28.872 69.01-21.886 43.6 11.419 63.95 67.399 42.02 115.56-6.9567 15.276-4.432 34.319 6.5509 49.41 16.106 22.131 28.183 43.961 34.566 62.479 1.5166 4.4 3.0743 8.45 3.4615 9 0.38718 0.55 1.2749 3.475 1.9727 6.5 0.69779 3.025 2.088 7.3 3.0893 9.5 2.4586 5.4019 4.0942 10.575 8.3788 26.5 5.4185 20.14 10.986 36.017 18.028 51.412 1.3736 3.0029 2.4974 5.7907 2.4974 6.1952 0 0.40444 0.62465 1.4458 1.3881 2.3141 0.76346 0.86831 2.5838 3.8899 4.0451 6.7146 6.0723 11.737 6.7777 11.358 18.709-10.068 41.819-75.094 88.633-101.48 149.36-84.186 9.9966 2.8472 32.583 13.173 37.309 17.057 1.48 1.2163 4.941 3.7184 7.691 5.5603 4.9644 3.325 10.552 8.9848 20.24 20.5 2.7762 3.3 6.8955 8.007 9.154 10.46 4.3241 4.6965 4.752 5.9651 3.0712 9.1058-1.0742 2.0072-7.3064 2.8086-8.3765 1.0771-9.1683-14.835-86.797 2.7942-123.88 28.131-16.302 11.14-61.932 55.567-60.083 58.499 0.96232 1.5256 20.971 14.122 22.548 14.195 0.37233 0.0173 3.9994 1.566 8.06 3.4417 4.0607 1.8757 9.1971 3.8988 11.414 4.4958 12.628 3.4002 6.6535 14.952-10.319 19.953-18.829 5.5482-39.934 4.0424-62.582-4.465-10.319-3.8762-13.048-3.9995-18.37-0.83028-19.243 11.457-46.888 18.7-72.02 18.869-13.139 0.088-16.061 2.7901-27.575 25.508-7.3726 14.546-2.9722 25.262 15.906 38.733 8.5286 6.0859 8.5524 14.327 0.0414 14.327-1.8182 0-16.988-7.6706-21.732-10.989-7.0522-4.9327-7.6688-4.3266-8.8718 8.7195-1.0515 11.404-4.1505 15.833-7.153 10.223zm53.02-119.91c12.454-1.3915 30.46-8.8636 28.602-11.869-0.37688-0.60981-2.6417-1.9742-5.033-3.032s-7.7523-4.2206-11.913-7.0285c-4.17-2.81-7.84-5.11-8.16-5.11-0.32468 0-4.0043-2.3625-8.1769-5.25s-8.5398-5.9078-9.7048-6.7118c-3.4258-2.364-7.8071-5.973-12.624-10.399-2.4781-2.2768-6.5281-5.8828-9-8.0132-6.9242-5.9677-21.254-19.825-23.491-22.716-1.1018-1.424-5.3783-6.307-9.5033-10.851-7.8632-8.6621-20.906-25.549-23.147-29.971-0.72185-1.4239-2.2962-3.9389-3.4985-5.5889-2.01-2.7584-11.113-20.906-14.142-28.194-1.0073-2.4232-2.0961-3.2465-5-3.7804-9.2779-1.7057-12.179-11.53-4.6019-15.585 3.6298-1.9426 3.4638-2.9072-4.1187-23.941-0.89222-2.475-3.3929-6.317-5.557-8.5378-4.5369-4.6558-5.0222-7.9179-1.707-11.476 5.84-6.26-5.27-30.98-13.91-30.98-6.5932 0-11.266 4.0878-14.287 12.5-4.5342 12.622-5.0836 15.45-6.0029 30.901-1.0371 17.43-0.94646 17.889 4.0312 20.381 6.3051 3.1568 6.4856 10.147 0.40115 15.534-4.2454 3.7586-4.2758 2.5616 0.5677 22.37 6.8681 28.088 22.479 60.225 39.985 82.315 4.1408 5.225 9.5346 12.146 11.986 15.38 26.627 35.126 67.965 54.13 108.01 49.655zm-76.067-31.16c-1.5089-2.8194 1.6393-7.2414 5.4804-7.6978 3.1328-0.3722 7.5865 2.179 7.5865 4.3457 0 4.9942-10.717 7.7434-13.067 3.3521zm-18.894-28.064c-5.9208-6.3552 1.9449-13.144 9.4962-8.1964 3.1315 2.0518 3.1351 4.8057 0.0103 7.9304-3.0404 3.0404-6.8231 3.1463-9.5065 0.26599zm-23.265-13.542c-4.7657-2.9794-4.3664-7.4023 0.78505-8.6952 5.6648-1.4218 8.6925 2.0426 6.246 7.147-1.6154 3.3703-3.4649 3.7776-7.0311 1.5482zm45.449 0.17344c-4.1675-2.919-2.1965-7.4552 3.2275-7.428 5.3027 0.0266 7.9175 3.8162 4.9191 7.1293-2.0488 2.2639-5.1771 2.3786-8.1466 0.29868zm-29.15-20.078c-6.2451-7.9394 3.8454-17.005 10.339-9.2884 3.1647 3.761 3.3032 7.1799 0.40033 9.8843-3.1831 2.9655-8.1544 2.6897-10.739-0.5959zm-29.85-5.9218c-2.454-1.7188-2.8281-4.4243-1.0728-7.759 3.5284-6.7034 13.85-4.4132 13.85 3.073 0 5.7795-7.3617 8.4794-12.777 4.686zm18.997-17.002c-4.56-3.2-1.59-10.45 4.27-10.45 3.1742 0 6.5 2.8314 6.5 5.5336 0 4.2005-7.1458 7.4534-10.781 4.9074zm-34.23-8.15c-4.9372-1.7823-6.0818-6.9461-2.3636-10.664 3.5906-3.5906 8.4673-3.5913 11.291-0.002 5.2582 6.6847-0.59248 13.675-8.9274 10.666zm18.655-15.129c-4.7655-5.2658 1.377-13.844 8.8854-12.408 4.7482 0.90767 6.251 9.1062 2.289 12.487-2.7402 2.3382-9.0271 2.2939-11.174-0.0787zm-20.65-16.03c-5.0047-1.4646-6.2683-7.3041-2.4675-11.403 4.8313-5.2104 12.231-2.9924 13.12 3.9324 0.79911 6.2242-3.8269 9.4684-10.653 7.4707zm9.0308-26.104c-1.2228-1.2228-1.938-2.8592-1.6161-3.6979 0.31753-0.82745 0.57732-2.6273 0.57732-3.9996 0-6.0814 10.506-11.054 14.128-6.686 6.6049 7.9658-5.8355 21.637-13.089 14.384zm-17.72-13.44c-6.1841-5.3193-2.253-15.779 5.1609-13.732 10.891 3.0072 10.086 16.133-0.99031 16.133-0.75852 0-2.6353-1.0805-4.1706-2.4011zm6.988-23.065c-6.31-2.75-6.67-11.53-0.57-14.08 8.28-3.45 13.26-0.7 13.26 7.33 0 6.9608-5.4874 9.8763-12.692 6.7431zm63.143-140.73c10.098-5.1737 13.624-17.051 8.0323-27.056-8.8683-15.867-30.432-13.759-35.863 3.5065-5.1089 16.242 12.692 31.306 27.83 23.55z"/>
</svg>
